<svg id="Layer_2" data-name="Layer 2" xmlns="http://www.w3.org/2000/svg" viewBox="0 0 522.5 140.75"><defs><style>.cls-1{fill:#ec2027;}</style></defs><path d="M10,132.05h0a11.42,11.42,0,0,1-3.41-8.54v-23H19.67V94.81H6.54V77.51H.5v46a16.75,16.75,0,0,0,5.22,12.64,17.62,17.62,0,0,0,12.54,4.93h1.5v-5.66h-1.5A11.3,11.3,0,0,1,10,132.05Z" transform="translate(-0.5 -0.9)"/><path d="M64,101.64a20.57,20.57,0,0,0-5.5-4.53,24.41,24.41,0,0,0-12.4-3.44,23.4,23.4,0,0,0-17,7,23.65,23.65,0,0,0,0,33.79,23.44,23.44,0,0,0,17,7.05,23.68,23.68,0,0,0,12.17-3.35A22,22,0,0,0,64,133.4v7.11h6V94.72H64ZM58.93,130.5a16.9,16.9,0,0,1-12.67,5.39,17.37,17.37,0,0,1-12.82-5.41A17.3,17.3,0,0,1,28,117.71a17.63,17.63,0,0,1,5.42-12.88,17.16,17.16,0,0,1,12.77-5.49,16.93,16.93,0,0,1,12.66,5.44,18.24,18.24,0,0,1,0,25.72Z" transform="translate(-0.5 -0.9)"/><path d="M87.92,132.33a11.39,11.39,0,0,1-3.41-8.54V66.19h-6v57.6a16.74,16.74,0,0,0,5.22,12.64,17.58,17.58,0,0,0,12.54,4.93h1.5V135.7h-1.5A11.29,11.29,0,0,1,87.92,132.33Z" transform="translate(-0.5 -0.9)"/><path d="M139.28,102.06c-5-5.5-11-8.29-18-8.29a24,24,0,0,0-17.5,7,22.86,22.86,0,0,0-7.1,16.71,23.4,23.4,0,0,0,7.13,16.88,23,23,0,0,0,16.81,7.25h.85A22.85,22.85,0,0,0,139,133.74l.39-.43V123l-2.74,4.08a21.12,21.12,0,0,1-7,6.52,18.53,18.53,0,0,1-9.47,2.42c-3,0-6.25-1.21-9.6-3.6l29.65-29.26Zm-32.86,26.26a17.81,17.81,0,0,1-3.65-11.09,18.52,18.52,0,0,1,17.76-17.8,18.05,18.05,0,0,1,11.21,3.75Z" transform="translate(-0.5 -0.9)"/><path d="M166.79,93.67c-6.43,0-11.47,2.09-15,6.22V94.72h-6v45.79h6V114.1a13.87,13.87,0,0,1,4.54-10.34,14.49,14.49,0,0,1,10.51-4.42,13.27,13.27,0,0,1,10.08,4.38,14.42,14.42,0,0,1,4.2,10.38v26.41h6V114.1a19.91,19.91,0,0,0-5.85-14.46A19.57,19.57,0,0,0,166.79,93.67Z" transform="translate(-0.5 -0.9)"/><path d="M204,132.05h0a11.42,11.42,0,0,1-3.41-8.54v-23h13.13V94.81H200.61V77.51h-6v46a16.75,16.75,0,0,0,5.22,12.64,17.62,17.62,0,0,0,12.54,4.93h1.5v-5.66h-1.5A11.33,11.33,0,0,1,204,132.05Z" transform="translate(-0.5 -0.9)"/><path class="cls-1" d="M522.83,25A27.08,27.08,0,0,0,521,17.89a28.34,28.34,0,0,0-8.7-11.38,26.7,26.7,0,0,0-13.12-5.33C498,1,496.84,1,495.73.92L494,.9c-.6,0-1.18,0-1.77.07a35.44,35.44,0,0,0-6.72,1.24A39.19,39.19,0,0,0,473.35,8a36.08,36.08,0,0,0-5,4.48,21.85,21.85,0,0,0-2.18,2.74c-.33.49-.64,1-.92,1.53a36.73,36.73,0,0,0-4.31-2.26c-.69-.31-1.39-.6-2.11-.85s-1.44-.5-2.17-.73c-1.47-.45-3-.79-4.4-1.09A36.59,36.59,0,0,0,443,10.9a25.51,25.51,0,0,0-9.48,2.36,26.33,26.33,0,0,0-8,5.85A29.69,29.69,0,0,0,420,27.44a24.27,24.27,0,0,0-1.62,4.92,24.56,24.56,0,0,0-.55,5.13,26.1,26.1,0,0,0,2.07,10A25,25,0,0,0,425.67,56a36.48,36.48,0,0,0,7.87,5.48c1.34.73,2.56,1.39,3.95,2.09s2.75,1.34,4.17,1.91a86.8,86.8,0,0,0,8.5,2.8c1.36.41,2.7.84,4,1.31L458.28,71A44.75,44.75,0,0,1,466,74.49a63.81,63.81,0,0,1,7.17,4.83A64.83,64.83,0,0,0,467,73.15a44.87,44.87,0,0,0-7.37-5l-1.91-1.07c-.61-.36-1.25-.71-1.91-1.06-1.32-.7-2.66-1.36-4-2a82.15,82.15,0,0,1-7.57-3.78c-1.17-.68-2.31-1.44-3.44-2.23s-2.33-1.67-3.42-2.49a34.28,34.28,0,0,1-5.76-5.21,19.37,19.37,0,0,1-3.46-6.07,24.4,24.4,0,0,1-1.31-6.92,21.68,21.68,0,0,1,.11-3.51,17,17,0,0,1,.75-3.41A21.85,21.85,0,0,1,431,23.89,19.27,19.27,0,0,1,436.48,19a20,20,0,0,1,3.36-1.61,25,25,0,0,1,3.69-1,31.5,31.5,0,0,1,8-.19c1.43.13,2.78.27,4.12.51.68.13,1.35.24,2,.42s1.34.33,2,.54a39.67,39.67,0,0,1,14.64,8.18l.76-.75A40.53,40.53,0,0,0,469,19.3a13.59,13.59,0,0,1,1-1.42,18.64,18.64,0,0,1,1.86-2,34.9,34.9,0,0,1,4.57-3.56A33.71,33.71,0,0,1,487,7.72a29.74,29.74,0,0,1,5.62-.85c.46,0,.93,0,1.38,0s.88,0,1.4.09a27.37,27.37,0,0,1,2.82.39A20.06,20.06,0,0,1,507.78,12a20.86,20.86,0,0,1,5.84,8.75,19,19,0,0,1,.56,10.18,32.55,32.55,0,0,1-1.66,5.28L512,37.5c-.17.41-.35.82-.54,1.22-.38.8-.81,1.57-1.28,2.35A92.61,92.61,0,0,1,503,50.51c-1.31,1.59-2.57,3.12-3.9,4.6s-2.68,2.85-4.23,4.49a47.56,47.56,0,0,0-4.37,5.4,66.43,66.43,0,0,0-3.62,5.72c-1.11,2-2.1,4-3,6s-1.74,3.85-2.62,5.89-1.67,4.09-2.39,6.2-1.32,4.21-1.91,6.12a108.87,108.87,0,0,1-4.29,11.22,61.91,61.91,0,0,1-5.15,10.28,23.57,23.57,0,0,1-3.12,3.68h0a53.84,53.84,0,0,1-5.85,3.8,45.61,45.61,0,0,1-7.07,3.28,20.42,20.42,0,0,1-6.9,1.31,8.47,8.47,0,0,1-1.94-.22,5.3,5.3,0,0,1-1.72-.77,7.12,7.12,0,0,1-1.61-1.53,16.52,16.52,0,0,1-1.61-2.45,37.61,37.61,0,0,0,8.81-3.66,32.4,32.4,0,0,0,7-5.35,24.5,24.5,0,0,0,4.61-6.39,15.2,15.2,0,0,0,1.67-6.77,14.12,14.12,0,0,0-1.09-5.62,12.52,12.52,0,0,0-3-4.28,13.86,13.86,0,0,0-4.56-2.76,16,16,0,0,0-5.68-1A17.08,17.08,0,0,0,438.58,89,20.27,20.27,0,0,0,433,92.6a24.62,24.62,0,0,0-4.34,5.24,33.91,33.91,0,0,0-3.08,6.25,37.56,37.56,0,0,0-1.75,6.28c-.43.2-.84.41-1.28.6a13.32,13.32,0,0,1-5.08,1.09,4.33,4.33,0,0,1-1.67-.33,3.53,3.53,0,0,1-1.41-1.12,6,6,0,0,1-1-2.1,11.69,11.69,0,0,1-.39-3.28,17.94,17.94,0,0,1,.28-2.86c.18-1.15.38-2.33.6-3.55s.41-2.38.6-3.49a17.39,17.39,0,0,0,.27-2.6,5.1,5.1,0,0,0-.44-2.15A4.68,4.68,0,0,0,413.14,89a5.11,5.11,0,0,0-1.72-1,5.81,5.81,0,0,0-2-.36,9,9,0,0,0-5.3,1.61,18.9,18.9,0,0,0-4.09,4,31.82,31.82,0,0,0-3.17,5q-1.36,2.7-2.45,4.89h-.6c-.08-1.86-.11-3.74-.11-5.66V92.57c0-1.13,0-2-.08-2.68a3,3,0,0,0-.47-1.5,1.77,1.77,0,0,0-1.17-.65,13.88,13.88,0,0,0-2.21-.14,13.51,13.51,0,0,0-2.1.14,3.3,3.3,0,0,0-1.42.54,3.8,3.8,0,0,0-1,1.12,10.23,10.23,0,0,0-.88,1.91,41.11,41.11,0,0,0-1.42,4.59c-.47,1.86-.94,3.89-1.42,6.11,0,.23-.09.47-.14.69-.9-1-1.82-2-2.78-3a48.72,48.72,0,0,0-7.37-6.2,37.28,37.28,0,0,0-8.49-4.31A28.88,28.88,0,0,0,353,87.6a26.14,26.14,0,0,0-10.92,2.21,24,24,0,0,0-8.22,6.06,27.1,27.1,0,0,0-5.16,9.06,34.19,34.19,0,0,0-1.8,11.22,38.65,38.65,0,0,0,.25,4.31c-.54.42-1.08.82-1.61,1.21-.88.62-1.78,1.22-2.7,1.82s-1.85,1.14-2.76,1.62a17.92,17.92,0,0,1-2.6,1.11,7,7,0,0,1-2.26.41,2.63,2.63,0,0,1-1.83-.65,4.53,4.53,0,0,1-1.17-1.78,11.15,11.15,0,0,1-.63-2.53,22.2,22.2,0,0,1-.19-3,21.17,21.17,0,0,1,.16-2.59c.11-.89.25-1.76.41-2.62s.34-1.65.52-2.37a17.32,17.32,0,0,1,.55-1.86q2.83-6.89,5.84-13.27t5.57-12.88a134,134,0,0,0,4.47-13.35,81.08,81.08,0,0,0,2.62-14.55c.11-1.34.17-2.65.17-3.93a37.18,37.18,0,0,0-.49-6,17.76,17.76,0,0,0-1.62-5.13,9.76,9.76,0,0,0-2.92-3.55,7.11,7.11,0,0,0-4.36-1.34,12.13,12.13,0,0,0-6.77,2.16,25.28,25.28,0,0,0-6.17,6,49,49,0,0,0-5.32,9.06,82.33,82.33,0,0,0-4.24,11.41,106.56,106.56,0,0,0-2.89,13,100.82,100.82,0,0,0-1.25,13.81,26.85,26.85,0,0,0-7.81,1.91,32,32,0,0,0-6.77,3.85,32.53,32.53,0,0,0-5.57,5.3,34.84,34.84,0,0,0-4.18,6.33,33.66,33.66,0,0,0-2.62,6.93,29,29,0,0,0-.9,7.07c0,.54,0,1.07.05,1.59l0,0a28,28,0,0,1-2.56,2.11,15.88,15.88,0,0,1-2.54,1.5,5.83,5.83,0,0,1-2.41.57,1.91,1.91,0,0,1-2-1.45,13.64,13.64,0,0,1-.46-4,40.15,40.15,0,0,1,.54-6.36q.56-3.36,1.2-6.71c.44-2.24.84-4.43,1.21-6.55a35.18,35.18,0,0,0,.54-5.82,9.43,9.43,0,0,0-.3-2.67,3.6,3.6,0,0,0-.84-1.53A2.58,2.58,0,0,0,259,92a6.7,6.7,0,0,0-1.53-.17l-1.23,0-1.22,0a12.85,12.85,0,0,1-1.4-.08,5.25,5.25,0,0,1-1.33-.36,2.52,2.52,0,0,1-1.1-.87l-.9-1.23a5,5,0,0,0-1.17-1.12,3.4,3.4,0,0,0-2-.49,18.11,18.11,0,0,0-7.39,1.61,29.23,29.23,0,0,0-6.91,4.34,38.36,38.36,0,0,0-6,6.39,48,48,0,0,0-4.78,7.78,45.55,45.55,0,0,0-3.16,8.43,32.47,32.47,0,0,0-1.15,8.41,17.19,17.19,0,0,0,1.15,6.47,15,15,0,0,0,3.05,4.86,13.3,13.3,0,0,0,4.4,3.05,12.79,12.79,0,0,0,5.1,1.07,15.28,15.28,0,0,0,4.91-.82,27.37,27.37,0,0,0,4.73-2.1,28.45,28.45,0,0,0,4.17-2.87,25.35,25.35,0,0,0,3.22-3.11,18.94,18.94,0,0,0,4.15,6.74,8.3,8.3,0,0,0,6,2.32,13.53,13.53,0,0,0,6-1.47,29.6,29.6,0,0,0,5.63-3.61l1-.83,0,0a13.19,13.19,0,0,0,4.31,4.07,11.85,11.85,0,0,0,6.14,1.53,16.36,16.36,0,0,0,5-.79,29.36,29.36,0,0,0,4.91-2.1,33.86,33.86,0,0,0,4.69-3.09,53.19,53.19,0,0,0,4.29-3.74,16.84,16.84,0,0,0,3.08,5.08,15.43,15.43,0,0,0,3.55,2.92,12,12,0,0,0,3.28,1.34,11.34,11.34,0,0,0,2.26.32,10.83,10.83,0,0,0,3-.46,27.66,27.66,0,0,0,3.3-1.2c1.13-.49,2.27-1.06,3.44-1.69s2.27-1.29,3.33-1.94c1.57-1,3.15-2,4.74-3.19.18.32.36.64.56.95a17.45,17.45,0,0,0,5.59,5.49,15.38,15.38,0,0,0,8.22,2.1,17.08,17.08,0,0,0,6.28-1.15,21,21,0,0,0,5.43-3.11,23.51,23.51,0,0,0,4.42-4.64,30.55,30.55,0,0,0,3.27-5.73,32.72,32.72,0,0,0,2.05-6.33,29.61,29.61,0,0,0-.08-13.24,29.55,29.55,0,0,0-2.37-6.69l.43-.6c1.31.87,2.88,2,4.7,3.25s3.66,2.66,5.54,4.12,3.65,3,5.32,4.48l0,0q-.49,3-.88,5.87c-.3,2.37-.55,4.61-.73,6.74s-.28,4-.28,5.6a36.16,36.16,0,0,0,.25,4.23,12.29,12.29,0,0,0,1,3.66A5.74,5.74,0,0,0,385,140a4.45,4.45,0,0,0,1.8-.36,4.07,4.07,0,0,0,1.53-1.22,12.65,12.65,0,0,0,1.39-2.27,36.54,36.54,0,0,0,1.45-3.52l9.77-27.24h.87c.29,2.29.67,4.56,1.15,6.79a22.09,22.09,0,0,0,2.18,6.06,12,12,0,0,0,4,4.37,11.74,11.74,0,0,0,6.6,1.67,15.1,15.1,0,0,0,4.51-.69,28.4,28.4,0,0,0,3.36-1.29,28.81,28.81,0,0,0,.84,3.59,21.44,21.44,0,0,0,3.85,7.26,18.54,18.54,0,0,0,6.41,5,20.43,20.43,0,0,0,9,1.86,28.73,28.73,0,0,0,6.47-.74,38.88,38.88,0,0,0,6.17-2,29.64,29.64,0,0,0,4.27-1.89,37.74,37.74,0,0,0,15.75-13.09,71.11,71.11,0,0,0,6-12.17,120.6,120.6,0,0,0,4.49-12.27c.63-2.09,1.16-4,1.76-5.88s1.3-3.68,2.05-5.53,1.61-3.81,2.42-5.62,1.66-3.58,2.58-5.27,1.93-3.33,3-4.92a38.35,38.35,0,0,1,3.45-4.41c1.29-1.42,2.86-3.06,4.29-4.72s2.82-3.37,4.11-5a97.29,97.29,0,0,0,7.59-10.82,34.52,34.52,0,0,0,1.61-3.22c.24-.56.46-1.12.67-1.68l.3-.84.26-.76a42.26,42.26,0,0,0,1.72-6.78A27.58,27.58,0,0,0,522.83,25ZM245.35,114.13a32.9,32.9,0,0,1-2.89,9.45,17.09,17.09,0,0,1-2.84,4.2,4.91,4.91,0,0,1-3.66,1.75,3.27,3.27,0,0,1-2.07-.63,4.36,4.36,0,0,1-1.31-1.64,7.57,7.57,0,0,1-.68-2.29,17.67,17.67,0,0,1-.2-2.65,22.87,22.87,0,0,1,.63-5.13,32.18,32.18,0,0,1,1.78-5.43,33.47,33.47,0,0,1,2.73-5.16,27.29,27.29,0,0,1,3.46-4.37,16.74,16.74,0,0,1,4-3,9.37,9.37,0,0,1,4.37-1.12Zm48.59,8.68a20.09,20.09,0,0,1-1.45,2.1,14.56,14.56,0,0,1-1.66,1.81A9.33,9.33,0,0,1,289,128a4.17,4.17,0,0,1-1.94.49,7.47,7.47,0,0,1-3.11-.55,4.61,4.61,0,0,1-1.86-1.42,5.09,5.09,0,0,1-.9-2,10.18,10.18,0,0,1-.24-2.18,22,22,0,0,1,1-6.12,31.55,31.55,0,0,1,2.86-6.71,29.74,29.74,0,0,1,4.7-6.2,22.8,22.8,0,0,1,6.41-4.61s.08.33.11,1.09.07,1.75.09,3,0,2.53.08,4,.07,2.87.11,4.23.09,2.61.16,3.72a18.2,18.2,0,0,0,.27,2.43A36.51,36.51,0,0,1,293.94,122.81ZM309,98.9V96c0-1,0-2.21.05-3.58s.1-2.87.19-4.53.21-3.37.36-5.16c.07-.87.21-2.35.43-4.42s.51-4.4.88-7,.82-5.26,1.36-8a69.94,69.94,0,0,1,1.91-7.59,24.22,24.22,0,0,1,2.51-5.65c.95-1.47,2-2.21,3.17-2.21a1.64,1.64,0,0,1,1.5,1.14,11,11,0,0,1,.52,4.1q0,2.24-.33,6.06a54.34,54.34,0,0,1-.95,6.11q-.69,3.23-1.61,6.55c-.62,2.22-1.31,4.44-2.05,6.64s-1.48,4.3-2.21,6.3Q312.12,91.81,309,98.9Zm46.81,17.66a33.1,33.1,0,0,1-2.1,6.33,17.85,17.85,0,0,1-3.06,4.75,5,5,0,0,1-3.6,1.89,7.09,7.09,0,0,1-3.66-.9,7,7,0,0,1-2.46-2.41,11,11,0,0,1-1.36-3.52,20.37,20.37,0,0,1-.44-4.31,29.48,29.48,0,0,1,.87-6.93,29.94,29.94,0,0,1,2.41-6.58A18.23,18.23,0,0,1,346,100a6.18,6.18,0,0,1,4.26-1.91,4.62,4.62,0,0,1,2.9.93,6.94,6.94,0,0,1,2,2.51,14.58,14.58,0,0,1,1.15,3.74,27.34,27.34,0,0,1,.38,4.67A29.64,29.64,0,0,1,355.82,116.56Zm80.71-5.1A26.14,26.14,0,0,1,437,108a21.25,21.25,0,0,1,1-3.57,12.14,12.14,0,0,1,1.8-3.17A8.71,8.71,0,0,1,442.62,99a8.45,8.45,0,0,1,4-.88,2.59,2.59,0,0,1,2.21,1.59,8.08,8.08,0,0,1,.9,4,6.12,6.12,0,0,1-1.36,3.6,18.15,18.15,0,0,1-3.36,3.44,19.51,19.51,0,0,1-4.31,2.59,10.74,10.74,0,0,1-4.29,1C436.42,113.55,436.46,112.59,436.53,111.46Z" transform="translate(-0.5 -0.9)"/></svg>